<svg width="1115" height="643" viewBox="0 0 1115 643" fill="none" xmlns="http://www.w3.org/2000/svg">
<path d="M164.199 240.386V0H351.001V48.4414H226.709V97.2471H325.561V142.775H226.709V191.945H355.726V240.386H164.199Z" fill="#004DE8"/>
<path d="M490.506 124.928C490.506 116.429 488.083 109.752 483.237 104.896C478.634 99.7967 472.335 97.2471 464.339 97.2471C456.344 97.2471 449.439 99.311 443.624 103.439C438.051 107.324 434.175 114.365 431.994 124.564L379.661 112.18C383.053 94.6975 392.017 80.7357 406.554 70.2947C421.091 59.8537 441.564 54.6332 467.973 54.6332C494.625 54.6332 515.219 60.5821 529.756 72.48C544.535 84.1351 551.925 101.254 551.925 123.835V190.488C551.925 199.958 556.165 204.692 564.645 204.692C569.006 204.692 572.519 204.207 575.184 203.236L571.55 238.565C564.282 241.964 555.438 243.664 545.02 243.664C533.633 243.664 523.82 241.479 515.582 237.108C507.345 232.495 501.772 225.574 498.865 216.347C493.777 225.817 485.66 232.859 474.515 237.472C463.612 241.843 451.983 244.028 439.626 244.028C420.97 244.028 406.07 239.779 394.925 231.281C384.022 222.539 378.57 210.034 378.57 193.766C378.57 180.654 382.447 169.849 390.2 161.35C398.195 152.609 410.673 146.538 427.633 143.139L490.506 130.027V124.928ZM439.626 187.938C439.626 193.28 441.564 197.287 445.441 199.958C449.318 202.628 453.921 203.964 459.251 203.964C467.489 203.964 474.757 201.536 481.057 196.68C487.356 191.58 490.506 183.689 490.506 173.005V162.807L461.068 168.999C453.8 170.456 448.348 172.641 444.714 175.555C441.322 178.226 439.626 182.353 439.626 187.938Z" fill="#004DE8"/>
<path d="M675.891 244.028C657.719 244.028 640.88 241.115 625.374 235.287C609.868 229.217 596.906 220.597 586.488 209.427L615.562 175.19C621.619 182.961 629.614 189.517 639.548 194.858C649.724 199.958 660.99 202.507 673.347 202.507C680.857 202.507 687.036 201.414 691.881 199.229C696.727 197.044 699.15 193.644 699.15 189.031C699.15 185.874 697.939 183.203 695.516 181.018C693.093 178.833 688.247 177.012 680.979 175.555L655.539 170.456C632.764 165.842 616.531 159.043 606.839 150.059C597.39 140.832 592.666 128.813 592.666 114.001C592.666 104.046 595.694 94.5761 601.752 85.592C607.809 76.6079 617.137 69.2021 629.735 63.3745C642.334 57.547 658.446 54.6332 678.071 54.6332C715.625 54.6332 743.004 65.0742 760.206 85.9562L730.768 119.465C724.953 112.18 717.442 106.474 708.236 102.346C699.029 98.2184 689.822 96.1544 680.615 96.1544C662.928 96.1544 654.085 100.646 654.085 109.631C654.085 112.787 655.539 115.58 658.446 118.008C661.596 120.436 667.29 122.378 675.527 123.835L708.599 130.391C727.255 134.033 740.702 140.347 748.939 149.331C757.177 158.072 761.296 168.756 761.296 181.382C761.296 199.108 754.149 214.041 739.854 226.181C725.801 238.079 704.48 244.028 675.891 244.028Z" fill="#004DE8"/>
<path d="M971.896 58.2754L905.753 240.386C898.969 259.568 891.579 274.866 883.584 286.278C875.588 297.933 866.139 306.189 855.236 311.045C844.333 316.144 831.25 318.694 815.986 318.694C805.568 318.694 796.119 317.601 787.639 315.416C779.401 313.23 772.133 310.195 765.833 306.31L778.19 264.425C782.551 267.581 787.154 269.767 792 270.981C796.846 272.438 803.024 273.166 810.535 273.166C817.561 273.166 823.255 271.952 827.616 269.524C832.219 267.338 835.853 262.725 838.519 255.683L843.243 244.393L822.164 194.858L767.65 58.2754H835.611L863.595 162.079L872.317 200.686L882.493 160.622L910.477 58.2754H971.896Z" fill="#004DE8"/>
<path d="M219.147 398.972V447.413H141.01V639.358H78.5003V447.413H0V398.972H219.147Z" fill="#004DE8"/>
<path d="M276.44 436.122C263.841 436.122 254.635 433.816 248.82 429.202C243.247 424.346 240.461 416.819 240.461 406.62C240.461 396.179 243.247 388.652 248.82 384.039C254.635 379.182 263.841 376.754 276.44 376.754C288.797 376.754 297.882 379.182 303.697 384.039C309.512 388.652 312.42 396.179 312.42 406.62C312.42 416.819 309.512 424.346 303.697 429.202C297.882 433.816 288.797 436.122 276.44 436.122ZM307.332 457.247V639.358H245.549V457.247H307.332Z" fill="#004DE8"/>
<path d="M437.444 453.605C455.858 453.605 471.122 456.276 483.236 461.618C495.592 466.96 505.163 473.88 511.947 482.378C518.731 490.877 523.092 500.104 525.03 510.059L467.972 528.999C466.518 518.558 463.49 510.788 458.886 505.689C454.283 500.347 447.741 497.676 439.261 497.676C427.632 497.676 418.788 501.804 412.731 510.059C406.916 518.315 404.009 531.305 404.009 549.031C404.009 566.999 407.159 579.868 413.458 587.638C420 595.166 428.722 598.929 439.625 598.929C456.827 598.929 466.882 589.095 469.789 569.427L525.393 587.274C522.728 603.057 513.885 616.29 498.863 626.974C484.084 637.658 464.459 643 439.988 643C410.187 643 386.322 634.744 368.393 618.233C350.706 601.479 341.863 578.169 341.863 548.302C341.863 528.392 345.86 511.395 353.856 497.311C362.094 483.228 373.36 472.423 387.655 464.896C401.949 457.369 418.546 453.605 437.444 453.605Z" fill="#004DE8"/>
<path d="M619.297 380.032V533.734L688.348 457.247H757.036L690.165 528.635L761.033 639.358H692.709L648.734 564.693L619.297 597.472V639.358H557.514V380.032H619.297Z" fill="#004DE8"/>
<path d="M862.33 643C832.045 643 808.058 634.744 790.372 618.233C772.927 601.722 764.205 578.411 764.205 548.302C764.205 528.392 768.203 511.395 776.198 497.311C784.436 482.985 795.581 472.18 809.633 464.896C823.928 457.369 840.525 453.605 859.423 453.605C878.563 453.605 894.796 457.369 908.122 464.896C921.69 472.18 931.987 482.379 939.013 495.49C946.039 508.36 949.553 523.171 949.553 539.925C949.553 544.539 949.31 549.031 948.826 553.402C948.584 557.529 948.341 561.05 948.099 563.964H824.17C825.866 576.59 829.985 585.696 836.527 591.281C843.068 596.622 851.67 599.294 862.33 599.294C871.537 599.294 878.806 597.472 884.136 593.83C889.708 590.188 893.827 585.089 896.492 578.533L945.918 594.923C942.526 605.364 936.59 614.227 928.11 621.511C919.873 628.553 909.939 633.895 898.309 637.537C886.922 641.179 874.929 643 862.33 643ZM859.423 496.947C839.798 496.947 828.168 508.238 824.534 530.82H891.041C888.376 508.238 877.836 496.947 859.423 496.947Z" fill="#004DE8"/>
<path d="M1112.09 457.247V501.318H1057.94V574.526C1057.94 583.268 1060 589.581 1064.12 593.466C1068.48 597.108 1074.42 598.929 1081.93 598.929C1087.74 598.929 1092.71 598.322 1096.83 597.108C1100.95 595.651 1104.82 593.587 1108.46 590.916L1115 629.16C1108.94 633.288 1101.19 636.687 1091.74 639.358C1082.53 641.786 1073.21 643 1063.76 643C1042.92 643 1026.44 638.629 1014.33 629.888C1002.46 620.904 996.402 605.849 996.159 584.725V501.318H964.905V457.247H996.159V416.454L1057.94 399.336V457.247H1112.09Z" fill="#004DE8"/>
</svg>